<svg id="Layer_1_Image" data-name="Layer 1 Image" xmlns="http://www.w3.org/2000/svg" viewBox="0 0 287.62 82.13"><title>seraphim sig test 2</title><path d="M316.86,119.51a6.5,6.5,0,0,0-3.58,4.65,6.34,6.34,0,0,1-1.84,3.16,63,63,0,0,1-5.33,3.76c-1.3.91-2.16.27-3-.75s-.11-1.8.66-2.47c.27-.24.59-.44.83-.7a6.81,6.81,0,0,0,.58-.89,3.82,3.82,0,0,0-1.2.18c-3.72,2-6,5.44-8.6,8.55s-5.64,6.35-8.47,9.53c-.66.74-1.35,1.28-2.29.44s-1.57-1.58-.6-2.77c2.47-3,5-6,7.37-9,1.41-1.85,2.54-3.91,3.8-5.87l-.32-.31c-1.2.39-2.44.7-3.6,1.19-1.72.72-3.24.61-4.37-.95-1-1.36-2-1.23-3.24-.43-1.49,1-2.94,1.84-4.55,0-.3-.34-1.48.07-2.25.16-1.4.17-2.8.31-4.19.56a21.4,21.4,0,0,0-2.85.77c-1.54.52-2.93.69-4.33-.51a2.5,2.5,0,0,0-2.15-.14c-2,.85-3.9,1.9-5.84,2.88-2.57,1.29-5.09,2.37-7.91.4-.49-.35-1.71,0-2.45.38-4.58,2.18-9.17,4.36-13.68,6.7-3.08,1.6-6.11,2.65-9.62,1.43a4.15,4.15,0,0,0-2.8.48c-7,3.46-13.91,7.05-20.9,10.49a78.4,78.4,0,0,1-7.3,3,4.09,4.09,0,0,1-2.64.31,7.26,7.26,0,0,1-3-2.41c-.3-.45.31-2,.94-2.51,7.52-6.41,15.52-12,25.68-13.26a44.45,44.45,0,0,1,4.61.07,4.75,4.75,0,0,0,2.57-.42c3-2.22,5.83-4.58,8.66-7a1.93,1.93,0,0,0,.61-1.64c-.11-.36-1-.67-1.57-.65-4.35.13-8.77-.1-13,.64a133.6,133.6,0,0,0-20.64,4.8c-6.37,2.2-12.3,5.7-18.43,8.63-1.15.54-2.25,1.2-3.44,1.62-5.46,2-8.37-.18-11.13-4.5a4.43,4.43,0,0,1,.12-4.93,36,36,0,0,1,6.42-7.32c4.91-4.26,10.19-9.11,15.53-12.82a86.19,86.19,0,0,1,12.17-7.12,150.89,150.89,0,0,1,17.57-7.12c7.49-2.42,15.19-4.15,22.78-6.25a13.86,13.86,0,0,0,3.66-1.7A117.19,117.19,0,0,1,266.5,77C272.25,75,278.09,73.4,284,71.85a9.39,9.39,0,0,1,4.76.2c.8.23,1.27,1.58,1.89,2.43a9.46,9.46,0,0,1-2.16,1.25c-4.61,1.17-9.31,2.06-13.88,3.38a126.91,126.91,0,0,0-21.95,8.73c-1.83.92-3.61,1.94-5.41,2.91l-.21,0,.16-.08a76.41,76.41,0,0,1,8.54,2.38A9,9,0,0,1,260.52,98a3,3,0,0,1-.26,3c-1.85,3.07-4.71,5.06-7.57,6.89a61.45,61.45,0,0,1-17.15,8c-1.3.35-2.68.38-4,.64-5.35,1.06-10.35-6.29-7.1-11.49,1.05-1.68,2.18-3.31,3.27-5,.24-.36.45-.73.68-1.1a3.8,3.8,0,0,0-1.46-.18c-4,1.24-8,2.42-11.89,3.86a141.72,141.72,0,0,0-26.2,12.49c-8.54,5.3-16.3,11.32-21.9,19.77a11.66,11.66,0,0,0-1,2.93c1.12,0,2.39.27,3.33-.16,4-1.8,7.75-3.95,11.72-5.71a89.09,89.09,0,0,1,12.56-4.92c6.62-1.8,13.38-3.2,20.15-4.37a67.5,67.5,0,0,1,10.85-.47,10.79,10.79,0,0,1,8.21,3.65c1.94,2.08,2.05,3.25.19,5.41a52.29,52.29,0,0,1-4.12,3.88c-.26.24-.49.52-.73.78a2.72,2.72,0,0,0,1,0c8.43-3.48,17.26-6.14,24.65-11.82a25.75,25.75,0,0,1,3.67-2.31,4.06,4.06,0,0,1,2.3-.53,2.39,2.39,0,0,1,1.53,1.26c.13.29-.45,1.15-.91,1.43-1.77,1.09-3.66,2-5.43,3.07a22.46,22.46,0,0,0-2.46,2l-.29.34.56,0a32.5,32.5,0,0,0,3.52-1.22c2.69-1.26,5.34-2.62,8-4,1.27-.65,2.33-.47,3,.78s1.44,1.09,2.45.62,2-.81,3-1.27,2-1,3.3-.4c.65.29,1.69-.29,2.55-.47,1.68-.35,3.26-1.53,5.12-.09.49.38,1.86-.22,2.76-.55,1.59-.58,3-.69,4.11.86.84,1.17,1.9.9,2.89.35,1.59-.86,3.14-1.79,4.66-2.76s2.77-1.45,4.06.13c.73.89,1.48.77,2.39.26a11.43,11.43,0,0,1,3.19-1.45,4,4,0,0,1,2.93.33,2.79,2.79,0,0,0,3.83.06,14.4,14.4,0,0,1,2.44-1.16Zm-104.1,20.14a51.15,51.15,0,0,0-7.13,2.3c-3.32,1.62-6.44,3.67-9.63,5.55-.21.13-.32.41-.48.62.31,0,.67.15.91,0,3.58-1.75,7.16-3.5,10.71-5.32,1.91-1,3.75-2.12,5.62-3.18l.28-.3Zm16.88-26.11c1-.19,2.2-.31,3.33-.62a61.16,61.16,0,0,0,18-8.19,36.44,36.44,0,0,0,6.4-5.77c1.4-1.55,1.09-2.41-1-2.78a45.24,45.24,0,0,0-9.67-1,18.9,18.9,0,0,0-8.33,1.91,29.19,29.19,0,0,0-10.2,10,20.69,20.69,0,0,0-1.9,4.17c-.38,1.08-.07,2,1.34,2A20.11,20.11,0,0,1,229.64,113.54Z" transform="translate(-161.37 -71.63)"/><path d="M426.77,120.33c-.89.69-1.81,1.35-2.67,2.08s-1.56,1.48-2.38,2.18-1.78.66-2.25-.37c-.87-1.92-1.9-1.49-3.11-.43a7.64,7.64,0,0,1-1.13.75c-2.08,1.28-3.1,1.09-3.84-1.27-.54-1.72-1.17-1.25-2-.52-1.77,1.55-3.43,3.21-5.24,4.7-.53.44-1.67.84-2.07.58a2.76,2.76,0,0,1-1.17-2.15c.35-2.48,1-4.92,1.57-7.36.06-.25.46-.41.7-.62.07.32.27.66.2.95-.5,2.1-1.08,4.19-1.57,6.3a3.35,3.35,0,0,0,.21,1.25,4.16,4.16,0,0,0,1.17-.52c2.67-2.43,5.26-4.95,8-7.32.92-.79,1.89-2.47,3.35-1.42,1.68,1.22,0,2.56-.41,3.82a15.33,15.33,0,0,1-.8,1.69l-.05-.05c1.08-.61,2.18-1.18,3.22-1.84,1.2-.77,2.35-1.12,3.26.33.75,1.2,1.38.78,2.08,0,1.27-1.41,2.48-2.88,3.85-4.19,2.51-2.38,3.81-2.18,5.25,1,.68,1.49,1.27.75,2,.34,4-2.23,8.07-4.44,12.08-6.7,1.58-.88,2.52-.11,3.4,1.1a2,2,0,0,1-.16,2.9c-4.1,3.69-8.11,7.55-14.21,7.45a2.35,2.35,0,0,0-1.5.43c-1.92,1.76-4.2,3.32-5.53,5.46-3.59,5.75-6.73,11.77-10.11,17.65-.39.67-1.43,1.69-1.75,1.55a2.52,2.52,0,0,1-1.78-3,13.59,13.59,0,0,1,.91-2.25,101.59,101.59,0,0,1,10.52-18,31.83,31.83,0,0,0,2.22-4.31c.13-.39.26-.78.4-1.17l0,0Z" transform="translate(-161.37 -71.63)"/><path d="M348.08,125.15l6.06-3a10.8,10.8,0,0,1,2.73-1.15,2.54,2.54,0,0,1,1.78.79c.21.18,0,.93-.16,1.39a18,18,0,0,1-.79,1.81,7.59,7.59,0,0,0,2.06-.36c3.75-1.84,7.77.26,11.58-.82.32-.1.85.5,1.28.77a4.52,4.52,0,0,1-1.1.63c-1.48.39-3,.74-4.49,1-.52.1-1.31.27-1.58,0-1.95-1.91-3.85-.66-5.77,0-.69.22-1.38.42-2.06.68-1.21.47-2.33.56-3-.81-.55-1.14-1.3-1-2.22-.55q-1.93,1-3.9,1.92c-1.37.65-2.68,1-4-.29a2.26,2.26,0,0,0-1.88,0,20.86,20.86,0,0,0-2.57,1.49c-3.06,1.71-5.81,1.1-8.05-1.59-.36-.43-1.35-.34-2-.49v0h-.63v0c-.84.51-1.68,1-2.53,1.53-1.68,1-3,.49-3.85-1.12-.64-1.16-1.34-1.9-2.78-1.11a2.11,2.11,0,0,1-2.91-.54,3.07,3.07,0,0,1-.42-3.77,43.51,43.51,0,0,1,9.48-10.72c.46-.38,1.42-.18,2.15-.25a7.91,7.91,0,0,1-.83,1.76c-2.23,2.71-4.56,5.36-6.78,8.09a14,14,0,0,0-1.26,2.36l0,0c.84-.34,1.67-.71,2.52-1,2.89-1.09,2.85-1,4.83,1.43a2.71,2.71,0,0,0,2,.72,17,17,0,0,0,2.62-.66c2.58-.53,3.76.17,4.12,2.84.24,1.78.92,1.68,2.11,1,3-1.81,6-3.66,9.11-5.38.66-.37,1.95-.69,2.31-.36,1.16,1.1-.3,1.6-.85,2.32a7.18,7.18,0,0,0-.61,1.17Z" transform="translate(-161.37 -71.63)"/><path d="M352.14,107.36c2.14.06,5,2.11,4.34,3.09a5.86,5.86,0,0,1-3.64,2.18c-2.26.3-3.56-1-3.49-2.73A2.42,2.42,0,0,1,352.14,107.36Z" transform="translate(-161.37 -71.63)"/><path d="M425,107.08c.93,1.32,1.91,2.11,2,3,.14,1.23-1.09,1.49-2.14,1.32s-2.29-.35-2-1.64C423.06,108.9,424.07,108.22,425,107.08Z" transform="translate(-161.37 -71.63)"/><path d="M388.1,126.9c-1.25.65-2,1.3-2.67,1.3s-1.21-.75-1.81-1.17c.65-.62,1.22-1.57,2-1.75C386.13,125.16,386.91,126.08,388.1,126.9Z" transform="translate(-161.37 -71.63)"/><path d="M330,126.56h-.61v0H330Z" transform="translate(-161.37 -71.63)"/></svg>